<svg width="640" height="480" xmlns="http://www.w3.org/2000/svg" xmlns:svg="http://www.w3.org/2000/svg">
 <!-- Created with SVG-edit - http://svg-edit.googlecode.com/ -->

 <g>
  <title>Layer 1</title>
  <rect id="svg_2" height="53" width="133" y="121" x="58" stroke-linecap="null" stroke-linejoin="null" stroke-dasharray="null" stroke-width="5" stroke="#000000" fill="#ff0050"/>
  <path id="svg_1" d="m343,150c14,-1 -151,-29 -7,34c144,63 -139,87 -11,1c128,-86 18,-35 18,-35z" stroke-linecap="null" stroke-linejoin="null" stroke-dasharray="null" stroke-width="0" stroke="#000000" fill="#00ffff"/>
  <path id="svg_3" d="m148,351c26,-132 -346,-103 26,-132c372,-29 16,6 8,7c-8,1 -136,95 56,118l192,23c-256,-148 37,-115 37,-115c0,0 -51,52 -51,52" stroke-linecap="null" stroke-linejoin="null" stroke-dasharray="null" stroke-width="0" stroke="#000000" fill="#00ffff"/>
 </g>
</svg>